<?xml version="1.0" encoding="UTF-8"?>
<mxfile host="app.diagrams.net" modified="2024-08-13T10:00:00.000Z" agent="5.0" etag="xxx" version="24.7.7">
  <diagram name="整体技术架构综合图" id="architecture">
    <mxGraphModel dx="1422" dy="794" grid="1" gridSize="10" guides="1" tooltips="1" connect="1" arrows="1" fold="1" page="1" pageScale="1" pageWidth="1400" pageHeight="900" math="0" shadow="1">
      <root>
        <mxCell id="0" />
        <mxCell id="1" parent="0" />
        
        <!-- 标题 -->
        <mxCell id="title" value="图1-1 整体技术架构综合图" style="text;html=1;strokeColor=none;fillColor=none;align=center;verticalAlign=middle;whiteSpace=wrap;rounded=0;fontSize=18;fontStyle=1;fontColor=#4284F3;" vertex="1" parent="1">
          <mxGeometry x="570" y="30" width="300" height="35" as="geometry" />
        </mxCell>
        
        <!-- 用户交互层 -->
        <mxCell id="user_layer" value="用户交互层" style="swimlane;html=1;fontStyle=1;align=center;verticalAlign=top;childLayout=stackLayout;horizontal=1;startSize=30;horizontalStack=0;resizeParent=1;resizeLast=0;collapsible=0;marginBottom=0;swimlaneFillColor=#E8F5E8;strokeColor=#82B366;fontColor=#333333;fontSize=14;" vertex="1" parent="1">
          <mxGeometry x="100" y="90" width="1200" height="80" as="geometry" />
        </mxCell>
        
        <mxCell id="user_interfaces" value="Web管理界面          移动应用端          专家决策系统          可视化分析平台          API接口服务" style="text;html=1;strokeColor=none;fillColor=none;spacingLeft=4;spacingRight=4;whiteSpace=wrap;overflow=hidden;rotatable=0;fontSize=12;fontColor=#333333;align=center;" vertex="1" parent="user_layer">
          <mxGeometry y="30" width="1200" height="50" as="geometry" />
        </mxCell>
        
        <!-- 应用服务层 -->
        <mxCell id="app_layer" value="应用服务层" style="swimlane;html=1;fontStyle=1;align=center;verticalAlign=top;childLayout=stackLayout;horizontal=1;startSize=30;horizontalStack=0;resizeParent=1;resizeLast=0;collapsible=0;marginBottom=0;swimlaneFillColor=#FFE6CC;strokeColor=#D79B00;fontColor=#333333;fontSize=14;" vertex="1" parent="1">
          <mxGeometry x="100" y="200" width="1200" height="120" as="geometry" />
        </mxCell>
        
        <mxCell id="core_services" value="" style="html=1;fillColor=none;strokeColor=none;" vertex="1" parent="app_layer">
          <mxGeometry y="30" width="1200" height="90" as="geometry" />
        </mxCell>
        
        <!-- 核心服务模块 -->
        <mxCell id="rag_service" value="RAG检索增强&#xa;生成服务" style="rounded=1;whiteSpace=wrap;html=1;fillColor=#D5E8D4;strokeColor=#82B366;fontColor=#333333;fontSize=11;fontStyle=1;shadow=1;" vertex="1" parent="core_services">
          <mxGeometry x="50" y="10" width="120" height="70" as="geometry" />
        </mxCell>
        
        <mxCell id="cot_service" value="CoT思维链&#xa;推理服务" style="rounded=1;whiteSpace=wrap;html=1;fillColor=#DAE8FC;strokeColor=#6C8EBF;fontColor=#333333;fontSize=11;fontStyle=1;shadow=1;" vertex="1" parent="core_services">
          <mxGeometry x="220" y="10" width="120" height="70" as="geometry" />
        </mxCell>
        
        <mxCell id="agent_service" value="语义智能体&#xa;策略生成" style="rounded=1;whiteSpace=wrap;html=1;fillColor=#F8CECC;strokeColor=#B85450;fontColor=#333333;fontSize=11;fontStyle=1;shadow=1;" vertex="1" parent="core_services">
          <mxGeometry x="390" y="10" width="120" height="70" as="geometry" />
        </mxCell>
        
        <mxCell id="kg_service" value="知识图谱&#xa;管理服务" style="rounded=1;whiteSpace=wrap;html=1;fillColor=#FFF2CC;strokeColor=#D6B656;fontColor=#333333;fontSize=11;fontStyle=1;shadow=1;" vertex="1" parent="core_services">
          <mxGeometry x="560" y="10" width="120" height="70" as="geometry" />
        </mxCell>
        
        <mxCell id="nlp_service" value="NLP语义理解&#xa;处理服务" style="rounded=1;whiteSpace=wrap;html=1;fillColor=#E1D5E7;strokeColor=#9673A6;fontColor=#333333;fontSize=11;fontStyle=1;shadow=1;" vertex="1" parent="core_services">
          <mxGeometry x="730" y="10" width="120" height="70" as="geometry" />
        </mxCell>
        
        <mxCell id="workflow_service" value="工作流编排&#xa;调度服务" style="rounded=1;whiteSpace=wrap;html=1;fillColor=#F0F0F0;strokeColor=#666666;fontColor=#333333;fontSize=11;fontStyle=1;shadow=1;" vertex="1" parent="core_services">
          <mxGeometry x="900" y="10" width="120" height="70" as="geometry" />
        </mxCell>
        
        <mxCell id="security_service" value="安全认证&#xa;权限服务" style="rounded=1;whiteSpace=wrap;html=1;fillColor=#FFCCCC;strokeColor=#B85450;fontColor=#333333;fontSize=11;fontStyle=1;shadow=1;" vertex="1" parent="core_services">
          <mxGeometry x="1070" y="10" width="120" height="70" as="geometry" />
        </mxCell>
        
        <!-- 核心引擎层 -->
        <mxCell id="engine_layer" value="核心引擎层" style="swimlane;html=1;fontStyle=1;align=center;verticalAlign=top;childLayout=stackLayout;horizontal=1;startSize=30;horizontalStack=0;resizeParent=1;resizeLast=0;collapsible=0;marginBottom=0;swimlaneFillColor=#E1F5FE;strokeColor=#6C8EBF;fontColor=#333333;fontSize=14;" vertex="1" parent="1">
          <mxGeometry x="100" y="350" width="1200" height="180" as="geometry" />
        </mxCell>
        
        <!-- 引擎模块容器 -->
        <mxCell id="engines_container" value="" style="html=1;fillColor=none;strokeColor=none;" vertex="1" parent="engine_layer">
          <mxGeometry y="30" width="1200" height="150" as="geometry" />
        </mxCell>
        
        <!-- 知识图谱构建引擎 -->
        <mxCell id="kg_engine" value="知识图谱构建引擎" style="rounded=1;whiteSpace=wrap;html=1;fillColor=#FFF2CC;strokeColor=#D6B656;fontColor=#333333;fontSize=12;fontStyle=1;shadow=1;" vertex="1" parent="engines_container">
          <mxGeometry x="50" y="20" width="200" height="40" as="geometry" />
        </mxCell>
        
        <mxCell id="kg_details" value="• 实体识别与关系抽取&#xa;• 知识融合与冲突消解&#xa;• 图谱构建与演化" style="text;html=1;strokeColor=none;fillColor=none;fontSize=10;fontColor=#666666;align=left;" vertex="1" parent="engines_container">
          <mxGeometry x="50" y="70" width="200" height="50" as="geometry" />
        </mxCell>
        
        <!-- RAG检索引擎 -->
        <mxCell id="rag_engine" value="RAG检索增强引擎" style="rounded=1;whiteSpace=wrap;html=1;fillColor=#D5E8D4;strokeColor=#82B366;fontColor=#333333;fontSize=12;fontStyle=1;shadow=1;" vertex="1" parent="engines_container">
          <mxGeometry x="300" y="20" width="200" height="40" as="geometry" />
        </mxCell>
        
        <mxCell id="rag_details" value="• 混合检索算法&#xa;• 语义向量匹配&#xa;• 上下文构建" style="text;html=1;strokeColor=none;fillColor=none;fontSize=10;fontColor=#666666;align=left;" vertex="1" parent="engines_container">
          <mxGeometry x="300" y="70" width="200" height="50" as="geometry" />
        </mxCell>
        
        <!-- CoT推理引擎 -->
        <mxCell id="cot_engine" value="CoT思维链推理引擎" style="rounded=1;whiteSpace=wrap;html=1;fillColor=#DAE8FC;strokeColor=#6C8EBF;fontColor=#333333;fontSize=12;fontStyle=1;shadow=1;" vertex="1" parent="engines_container">
          <mxGeometry x="550" y="20" width="200" height="40" as="geometry" />
        </mxCell>
        
        <mxCell id="cot_details" value="• 多步推理路径构建&#xa;• 因果链条分析&#xa;• 推理结果验证" style="text;html=1;strokeColor=none;fillColor=none;fontSize=10;fontColor=#666666;align=left;" vertex="1" parent="engines_container">
          <mxGeometry x="550" y="70" width="200" height="50" as="geometry" />
        </mxCell>
        
        <!-- 智能体引擎 -->
        <mxCell id="agent_engine" value="多智能体协同引擎" style="rounded=1;whiteSpace=wrap;html=1;fillColor=#F8CECC;strokeColor=#B85450;fontColor=#333333;fontSize=12;fontStyle=1;shadow=1;" vertex="1" parent="engines_container">
          <mxGeometry x="800" y="20" width="200" height="40" as="geometry" />
        </mxCell>
        
        <mxCell id="agent_details" value="• 场景理解与建模&#xa;• 策略生成与优化&#xa;• 智能体协调" style="text;html=1;strokeColor=none;fillColor=none;fontSize=10;fontColor=#666666;align=left;" vertex="1" parent="engines_container">
          <mxGeometry x="800" y="70" width="200" height="50" as="geometry" />
        </mxCell>
        
        <!-- 数据处理层 -->
        <mxCell id="data_layer" value="数据处理层" style="swimlane;html=1;fontStyle=1;align=center;verticalAlign=top;childLayout=stackLayout;horizontal=1;startSize=30;horizontalStack=0;resizeParent=1;resizeLast=0;collapsible=0;marginBottom=0;swimlaneFillColor=#FFF2CC;strokeColor=#D6B656;fontColor=#333333;fontSize=14;" vertex="1" parent="1">
          <mxGeometry x="100" y="560" width="1200" height="100" as="geometry" />
        </mxCell>
        
        <mxCell id="data_components" value="PDF文档解析     图文关联提取     数据清洗标准化     向量化索引     增量更新管理     质量评估控制" style="text;html=1;strokeColor=none;fillColor=none;spacingLeft=4;spacingRight=4;whiteSpace=wrap;overflow=hidden;rotatable=0;fontSize=12;fontColor=#333333;align=center;" vertex="1" parent="data_layer">
          <mxGeometry y="30" width="1200" height="70" as="geometry" />
        </mxCell>
        
        <!-- 数据存储层 -->
        <mxCell id="storage_layer" value="数据存储层" style="swimlane;html=1;fontStyle=1;align=center;verticalAlign=top;childLayout=stackLayout;horizontal=1;startSize=30;horizontalStack=0;resizeParent=1;resizeLast=0;collapsible=0;marginBottom=0;swimlaneFillColor=#F0F0F0;strokeColor=#666666;fontColor=#333333;fontSize=14;" vertex="1" parent="1">
          <mxGeometry x="100" y="690" width="1200" height="120" as="geometry" />
        </mxCell>
        
        <mxCell id="storage_systems" value="" style="html=1;fillColor=none;strokeColor=none;" vertex="1" parent="storage_layer">
          <mxGeometry y="30" width="1200" height="90" as="geometry" />
        </mxCell>
        
        <!-- 存储组件 -->
        <mxCell id="vector_db" value="向量数据库&#xa;(FAISS/Milvus)" style="rounded=1;whiteSpace=wrap;html=1;fillColor=#E1D5E7;strokeColor=#9673A6;fontColor=#333333;fontSize=11;shadow=1;" vertex="1" parent="storage_systems">
          <mxGeometry x="50" y="15" width="130" height="60" as="geometry" />
        </mxCell>
        
        <mxCell id="graph_db" value="图数据库&#xa;(Neo4j)" style="rounded=1;whiteSpace=wrap;html=1;fillColor=#DAE8FC;strokeColor=#6C8EBF;fontColor=#333333;fontSize=11;shadow=1;" vertex="1" parent="storage_systems">
          <mxGeometry x="220" y="15" width="130" height="60" as="geometry" />
        </mxCell>
        
        <mxCell id="doc_db" value="文档数据库&#xa;(MongoDB)" style="rounded=1;whiteSpace=wrap;html=1;fillColor=#D5E8D4;strokeColor=#82B366;fontColor=#333333;fontSize=11;shadow=1;" vertex="1" parent="storage_systems">
          <mxGeometry x="390" y="15" width="130" height="60" as="geometry" />
        </mxCell>
        
        <mxCell id="cache_db" value="缓存数据库&#xa;(Redis)" style="rounded=1;whiteSpace=wrap;html=1;fillColor=#F8CECC;strokeColor=#B85450;fontColor=#333333;fontSize=11;shadow=1;" vertex="1" parent="storage_systems">
          <mxGeometry x="560" y="15" width="130" height="60" as="geometry" />
        </mxCell>
        
        <mxCell id="relational_db" value="关系数据库&#xa;(PostgreSQL)" style="rounded=1;whiteSpace=wrap;html=1;fillColor=#FFF2CC;strokeColor=#D6B656;fontColor=#333333;fontSize=11;shadow=1;" vertex="1" parent="storage_systems">
          <mxGeometry x="730" y="15" width="130" height="60" as="geometry" />
        </mxCell>
        
        <mxCell id="file_storage" value="文件存储&#xa;(MinIO/OSS)" style="rounded=1;whiteSpace=wrap;html=1;fillColor=#FFCCCC;strokeColor=#B85450;fontColor=#333333;fontSize=11;shadow=1;" vertex="1" parent="storage_systems">
          <mxGeometry x="900" y="15" width="130" height="60" as="geometry" />
        </mxCell>
        
        <!-- 连接线 -->
        <mxCell id="arrow1" style="edgeStyle=orthogonalEdgeStyle;rounded=0;orthogonalLoop=1;jettySize=auto;html=1;strokeColor=#4284F3;strokeWidth=3;endArrow=classic;" edge="1" parent="1" source="user_layer" target="app_layer">
          <mxGeometry relative="1" as="geometry" />
        </mxCell>
        
        <mxCell id="arrow2" style="edgeStyle=orthogonalEdgeStyle;rounded=0;orthogonalLoop=1;jettySize=auto;html=1;strokeColor=#4284F3;strokeWidth=3;endArrow=classic;" edge="1" parent="1" source="app_layer" target="engine_layer">
          <mxGeometry relative="1" as="geometry" />
        </mxCell>
        
        <mxCell id="arrow3" style="edgeStyle=orthogonalEdgeStyle;rounded=0;orthogonalLoop=1;jettySize=auto;html=1;strokeColor=#4284F3;strokeWidth=3;endArrow=classic;" edge="1" parent="1" source="engine_layer" target="data_layer">
          <mxGeometry relative="1" as="geometry" />
        </mxCell>
        
        <mxCell id="arrow4" style="edgeStyle=orthogonalEdgeStyle;rounded=0;orthogonalLoop=1;jettySize=auto;html=1;strokeColor=#4284F3;strokeWidth=3;endArrow=classic;" edge="1" parent="1" source="data_layer" target="storage_layer">
          <mxGeometry relative="1" as="geometry" />
        </mxCell>
        
      </root>
    </mxGraphModel>
  </diagram>
</mxfile>